<?xml version="1.0" encoding="UTF-8"?>
<!-- Generated by Pixelmator Pro 2.4.5 -->
<svg width="24" height="24" viewBox="0 0 24 24" xmlns="http://www.w3.org/2000/svg" xmlns:xlink="http://www.w3.org/1999/xlink">
    <path id="path1" fill="none" stroke="#ffffff" stroke-width="1.5" stroke-linecap="round" stroke-linejoin="round" d="M 12 6.042 C 10.351612 4.563358 8.214397 3.746943 6 3.75 C 4.948 3.75 3.938 3.93 3 4.262001 L 3 18.511999 C 3.96362 18.172022 4.978164 17.998873 6 18 C 8.305 18 10.408 18.867001 12 20.292 M 12 6.042 C 13.648338 4.563276 15.785585 3.746847 18 3.75 C 19.052 3.75 20.062 3.93 21 4.262001 L 21 18.511999 C 20.036379 18.172022 19.021835 17.998873 18 18 C 15.785603 17.996943 13.648388 18.813358 12 20.292 M 12 6.042 L 12 20.292"/>
</svg>
